<svg id="Layer_1" data-name="Layer 1" xmlns="http://www.w3.org/2000/svg" viewBox="0 0 331 484.16"><defs><style>.cls-1{fill:#7f47ae;}.cls-2{fill:#fff;}</style></defs><title>vt new</title><path class="cls-1" d="M300,430.66c-3.14.22-6.31.34-9.5.34a132.52,132.52,0,0,1-39.95-258.87L257.06,136A165.52,165.52,0,0,0,291,463.5c3,0,6-.09,9-.25Z" transform="translate(-125.5 -57.25)"/><path class="cls-1" d="M325.12,136l-6,33.09A132.51,132.51,0,0,1,368,406v38.55A165.53,165.53,0,0,0,325.12,136Z" transform="translate(-125.5 -57.25)"/><polygon class="cls-2" points="155.28 26.86 105.19 288.75 138.03 333.41 201.8 0 155.28 26.86"/><polygon class="cls-2" points="227.32 484.16 227.32 240.36 189.2 240.36 189.2 453.12 227.32 484.16"/><path class="cls-2" d="M263.81,391.09l9.61-51.27L195.51,233.9a114.25,114.25,0,0,0-17.18,41Z" transform="translate(-125.5 -57.25)"/><path class="cls-2" d="M265.57,306.87H405.66q.34-4.39.34-8.87a115.13,115.13,0,0,0-3.76-29.25H265.57Z" transform="translate(-125.5 -57.25)"/></svg>