<svg id="Layer_1" data-name="Layer 1" xmlns="http://www.w3.org/2000/svg" viewBox="0 0 1000 1000"><defs><style>.cls-1{fill:#8c25ce;}</style></defs><title>vastus tech icons</title><path class="cls-1" d="M499.5,100.5c-223.12,0-404,180.88-404,404s180.88,404,404,404,404-180.88,404-404S722.62,100.5,499.5,100.5Zm-.25,739c-184.56,0-334.18-149.62-334.18-334.18S314.69,171.11,499.25,171.11,833.43,320.72,833.43,505.29,683.81,839.47,499.25,839.47Z"/><path class="cls-1" d="M500.9,280.2c-134.43,0-243.4,109-243.4,243.4S366.47,767,500.9,767,744.3,658,744.3,523.6,635.32,280.2,500.9,280.2Zm-.15,445.21c-111.19,0-201.33-90.14-201.33-201.33s90.14-201.34,201.33-201.34,201.33,90.14,201.33,201.34S611.94,725.41,500.75,725.41Z"/><path class="cls-1" d="M623.56,424.29l-137,80.76S467.2,545.43,521.66,532Z"/><rect class="cls-1" x="453.51" y="211" width="94.22" height="38.88" rx="12" ry="12"/><rect class="cls-1" x="480.77" y="235.34" width="38.43" height="53.84" rx="7.5" ry="7.5"/></svg>