<svg id="Layer_1" data-name="Layer 1" xmlns="http://www.w3.org/2000/svg" viewBox="0 0 1000 1000"><defs><style>.cls-1{fill:#fff;}</style></defs><title>vastus tech icons</title><path class="cls-1" d="M499.5,100.5c-223.12,0-404,180.88-404,404s180.88,404,404,404,404-180.88,404-404S722.62,100.5,499.5,100.5Zm-.25,739c-184.56,0-334.18-149.62-334.18-334.18S314.69,171.11,499.25,171.11,833.43,320.72,833.43,505.29,683.81,839.47,499.25,839.47Z"/><path class="cls-1" d="M733,429c22.9-73.91-57.89-159-125.52-141.78-37.75,9.59-77.09,54.76-100,88.48-23-33.72-59.46-81-99.1-88.48C340,274.37,265.49,353.21,282.85,429,297,490.84,361.18,567.6,392.33,611.3L502,767c3.47,3.92,5.31,4.17,9,0L614,617C640.43,575.43,713.21,493,733,429Z"/></svg>