<svg id="Layer_1" data-name="Layer 1" xmlns="http://www.w3.org/2000/svg" viewBox="0 0 1000 1000"><defs><style>.cls-1{fill:#efbd20;}</style></defs><title>vastus tech icons</title><path class="cls-1" d="M499.5,100.5c-223.12,0-404,180.88-404,404s180.88,404,404,404,404-180.88,404-404S722.62,100.5,499.5,100.5Zm-.25,739c-184.56,0-334.18-149.62-334.18-334.18S314.69,171.11,499.25,171.11,833.43,320.72,833.43,505.29,683.81,839.47,499.25,839.47Z"/><path class="cls-1" d="M786.72,450.61S765.93,403.1,756.21,389s-23-55.52-23-55.52-11.94-72.68-27.18-78.2-20.65,25-20.65,25,11.75,28.77-54,61.21-89,18.83-89,18.83-26.5-3.66-32-23.69-32.65-19-24.62,17.65c9.62,43.95-43.36,114.57-43.36,114.57s-56.14,53.19-110,85.78S244,626.07,244,626.07s-21.35,29.67-9.74,65.09S446,654.58,446,654.58s105.42-37.93,236.16-98.16S786.72,450.61,786.72,450.61Zm-252,97.78s-8.26,2.68-8.14-47.58S541,423.27,541,423.27s10.41-35.48,69.08-48.38,89.77-34.25,89.77-34.25S712.61,328,703.59,343s-62.7,35.95-62.7,35.95S575.8,392,560.11,426.71c-14.76,32.6-11.7,63.23-11.7,63.23s.81,11.68-.4,34.9C546.79,548.46,534.76,548.39,534.76,548.39Zm80.68-150.11s10.77,3.52,3.08,10.12-7.76.81-19.53,7.26-24.23,13-24.23,13-6.9,8.26-10.57,9.22-.44-6.33-.44-6.33,11.65-18,27-26.61S615.44,398.28,615.44,398.28Zm-55.26,53.46s21.28-18.82,28.36-21.91c6.9-3,19.11-13.22,26.24-12.56s2.92,10.93,2.92,10.93l-10.53,8.12-26.24,12.56s-14.75,5-23,19.24S560.18,451.74,560.18,451.74ZM556,485.56s10.17-22.92,38.53-36,28.14-7.62,28.14-7.62,15.18,8.67-15.72,27.28c0,0-9,4.1-25.65,11.38C565.51,487.47,557.35,497,557.35,497S554.72,493.5,556,485.56ZM624.22,482c-5.26,10.1-22,16.93-22,16.93s-21.51,4.2-29.93,23.24S556.06,534,556.06,534s-2.61-6.35-.89-16.75a47.47,47.47,0,0,1,31-31c25.22-8.14,31.11-12.44,31.11-12.44s7.32-8.74,8.44-7.22S629.48,471.89,624.22,482Zm60-41.82s-9.79,14.24-24.57,24.05-27.45,12.59-27.45,12.59,5.12-10-.48-13.76c-8.21-5.49,7.69-1.45,19-8.86s23.33-14.93,23.33-14.93,8.67-7.28,12.27-8.55S684.25,440.18,684.25,440.18Zm11.42-22.26-18.54,9.72s-10.17,6.77-15.44,11S630.76,451,630.76,451s3.56-4.52,2.14-9.72c0,0-1.12-4.41-5.2-4.73-5.18-.4,4.78-1.28,8.75-2A51.79,51.79,0,0,0,658,424.67s17.21-11.39,27.5-13.82c0,0,12.34-4.8,12.67-2.58S702.32,409.71,695.67,417.92ZM710.08,385c-7.9,12.13-33.76,20.88-33.76,20.88S658.16,411,644,421.06c-5.18,3.68-20.67,7-19.3,6.08a7.18,7.18,0,0,0,3-8.46s-1.52-4.37-7.63-5.54a189.3,189.3,0,0,0,45.76-14.85c29.51-13.81,31-14.88,31-14.88S720.08,369.68,710.08,385ZM718.3,350c-4.1,7.65-22.5,23.62-22.5,23.62s-19.53,14.25-35.26,19.51c-13.3,4.45-36.11,13.27-36.11,13.27s9.49-14.12-5-14c0,0,54.77-17,63.87-24.75a270.54,270.54,0,0,1,27.18-20S722.94,341.32,718.3,350Z"/></svg>