<svg id="Layer_1" data-name="Layer 1" xmlns="http://www.w3.org/2000/svg" viewBox="0 0 1000 1000"><defs><style>.cls-1{fill:#d12424;}</style></defs><title>vastus tech icons</title><path class="cls-1" d="M499.5,100.5c-223.12,0-404,180.88-404,404s180.88,404,404,404,404-180.88,404-404S722.62,100.5,499.5,100.5Zm-.25,739c-184.56,0-334.18-149.62-334.18-334.18S314.69,171.11,499.25,171.11,833.43,320.72,833.43,505.29,683.81,839.47,499.25,839.47Z"/><rect class="cls-1" x="372" y="481" width="225" height="45.94" rx="12" ry="12"/><rect class="cls-1" x="268" y="408.71" width="37.49" height="188.94" rx="12" ry="12"/><rect class="cls-1" x="691.21" y="409.59" width="36.79" height="188.94" rx="12" ry="12"/><rect class="cls-1" x="308.5" y="386.5" width="55.5" height="236.5" rx="12" ry="12"/><rect class="cls-1" x="633.28" y="383" width="54.72" height="236.5" rx="12" ry="12"/><rect class="cls-1" x="367.5" y="386.5" width="41.5" height="236.5" rx="12" ry="12"/><rect class="cls-1" x="588" y="383" width="41.36" height="236.5" rx="12" ry="12"/><path class="cls-1" d="M265,481H242a12,12,0,0,0-12,12v21.94a12,12,0,0,0,12,12h23Z"/><path class="cls-1" d="M731,481h23a12,12,0,0,1,12,12v21.94a12,12,0,0,1-12,12H731Z"/></svg>